<svg width="169" height="40" viewBox="0 0 169 40" fill="none" xmlns="http://www.w3.org/2000/svg">
<g clip-path="url(#clip0)">
<path d="M126.96 14.8694H123.189V35.8233H126.96V14.8694Z" fill="#324656"/>
<path d="M73.9673 21.8422V35.822H70.192V22.1443C70.192 19.7407 69.9492 16.8199 66.4772 16.8199C64.3794 16.8199 62.7876 18.2293 61.4272 19.825V35.822H57.652V23.9148C57.652 19.4525 57.2077 16.8186 54.024 16.8186C51.5625 16.8186 49.5754 19.0007 48.8871 19.8237V35.8207H45.1118V14.8719H48.8871V18.6119C49.633 17.3679 50.6734 16.3263 51.9165 15.5789C53.1596 14.8315 54.5675 14.4012 56.016 14.3257C58.7304 14.3257 60.4468 16.0573 61.1541 18.8648C62.7435 16.4436 65.327 14.3257 68.3976 14.3257C72.2559 14.3194 73.9673 17.4113 73.9673 21.8422Z" fill="#324656"/>
<path d="M88.4653 33.0686C84.8046 33.0686 80.9274 30.8487 81.0167 23.8003H95.4747C95.4747 18.2633 91.7988 14.3194 87.1842 14.3194C82.0713 14.3194 77.6782 18.4294 77.6782 25.5407C77.6782 32.2544 81.9656 36.3732 86.9716 36.3732C91.332 36.3732 93.8778 32.7514 95.1827 29.2493L94.2604 28.8051C93.0045 31.4465 90.9847 33.0686 88.4653 33.0686ZM86.0391 15.9805C88.9221 15.9805 90.7079 18.1714 90.7079 22.5016H81.1099C81.5189 18.3501 83.3033 15.9805 86.0391 15.9805Z" fill="#324656"/>
<path d="M148.059 20.2769C147.712 18.4927 146.72 16.899 145.272 15.8001C143.824 14.7012 142.022 14.1741 140.21 14.3195C135.097 14.3195 130.704 18.4295 130.704 25.5408C130.704 32.2545 135.214 36.3733 139.78 36.3733C144.46 36.3733 146.904 32.7516 148.211 29.2494L147.289 28.8052C145.767 31.5611 143.821 33.0687 141.099 33.0687C137.537 33.0687 134.137 29.7276 134.137 23.5223C134.137 19.1078 136.767 15.5553 140.027 15.5553C143.047 15.5553 144.792 18.242 145.523 21.3755L148.059 20.2769Z" fill="#324656"/>
<path d="M125.075 8.76998C126.392 8.76998 127.46 7.70231 127.46 6.38528C127.46 5.06825 126.392 4.00058 125.075 4.00058C123.758 4.00058 122.69 5.06825 122.69 6.38528C122.69 7.70231 123.758 8.76998 125.075 8.76998Z" fill="#324656"/>
<path d="M117.341 29.5326V4.7594H113.566V17.1548C113.04 16.2497 112.275 15.5066 111.355 15.0068C110.435 14.507 109.395 14.2697 108.35 14.3208C102.992 14.3208 98.6836 18.8839 98.6836 26.3488C98.6836 31.9374 102.541 36.3746 107.447 36.3746C108.808 36.3082 110.119 35.8416 111.216 35.0333C112.313 34.2249 113.147 33.1107 113.613 31.8304C113.682 33.3354 114.31 34.7604 115.375 35.8259H118.915C117.749 33.9428 117.199 31.743 117.341 29.5326ZM113.566 30.7281C113.161 31.6067 112.53 32.3621 111.738 32.917C110.946 33.472 110.021 33.8066 109.057 33.8867C105.051 33.8867 102.733 29.7427 102.733 24.7003C102.733 19.0626 105.215 15.6208 108.85 15.6208C109.46 15.5843 110.071 15.6738 110.645 15.8837C111.219 16.0936 111.744 16.4195 112.186 16.8409C112.629 17.2624 112.979 17.7704 113.217 18.3334C113.455 18.8964 113.574 19.5023 113.567 20.1133L113.566 30.7281Z" fill="#324656"/>
<path d="M166.459 29.6431V21.2772C166.459 16.3492 163.899 14.3232 159.563 14.3232C155.039 14.3232 152.601 17.5951 151.358 20.2805L153.894 21.3791C154.603 18.6106 156.376 15.559 158.967 15.559C161.303 15.559 162.638 17.0816 162.638 19.9307C162.638 21.4408 161.457 22.3682 158.68 23.6493C154.527 25.5634 150.878 27.2408 150.878 31.4628C150.862 32.1055 150.976 32.7447 151.213 33.3426C151.449 33.9404 151.803 34.4847 152.254 34.9431C152.704 35.4016 153.243 35.7648 153.836 36.0113C154.43 36.2578 155.067 36.3826 155.71 36.3782C159.541 36.3782 161.586 33.2661 162.714 32.0253C162.785 33.5324 163.413 34.9596 164.476 36.0296H168.014C166.85 34.1118 166.307 31.8813 166.459 29.6431ZM162.64 31.045C162.131 31.7336 161.488 32.3135 160.751 32.7507C160.015 33.1879 159.198 33.4735 158.349 33.5908C157.876 33.5908 157.408 33.492 156.976 33.3007C156.543 33.1095 156.155 32.8301 155.837 32.4802C155.518 32.1304 155.276 31.718 155.126 31.2693C154.977 30.8206 154.922 30.3456 154.966 29.8747C154.966 25.4501 160.054 25.0222 162.643 22.2361L162.64 31.045Z" fill="#324656"/>
<path d="M26.5475 4.7594V6.70869H15.6169V35.8234H10.9356V6.70869H0V4.7594H26.5475Z" fill="#324656"/>
<path d="M34.0098 33.0686C30.3491 33.0686 26.4719 30.8487 26.5612 23.8003H41.0192C41.0192 18.2633 37.3433 14.3194 32.7287 14.3194C27.6158 14.3194 23.2227 18.4294 23.2227 25.5407C23.2227 32.2544 27.5101 36.3732 32.516 36.3732C36.8777 36.3732 39.4222 32.7514 40.7272 29.2493L39.8048 28.8051C38.5476 31.4465 36.5304 33.0686 34.0098 33.0686ZM31.5835 15.9805C34.4666 15.9805 36.2523 18.1714 36.2523 22.5016H26.6543C27.0684 18.3501 28.8478 15.9805 31.5835 15.9805Z" fill="#324656"/>
</g>
<defs>
<clipPath id="clip0">
<rect width="168.004" height="40" fill="white"/>
</clipPath>
</defs>
</svg>
