<svg width="168" height="87" viewBox="0 0 168 87" fill="none" xmlns="http://www.w3.org/2000/svg">
<g clip-path="url(#clip0)">
<path fill-rule="evenodd" clip-rule="evenodd" d="M78.4896 62.8487C77.4816 62.8487 76.5996 63.5039 76.5996 65.0663V67.7795C76.7292 70.7593 77.1513 73.7191 77.8596 76.6163L79.3632 83.2355C79.7412 85.3187 80.3628 86.3519 83.0004 86.3519C85.638 86.3519 86.2512 85.1843 86.6376 83.2355L88.3932 75.0623L90.1404 83.2355C90.6444 85.1843 91.1484 86.3519 93.7776 86.3519C96.5412 86.3519 97.0452 85.3187 97.4148 83.2355L98.9184 76.6163C99.6892 73.7317 100.109 70.7647 100.17 67.7795V65.0663C100.17 63.7643 99.4224 62.8487 98.2968 62.8487C97.1712 62.8487 96.4152 63.6299 96.4152 65.0663V67.7795C96.4152 69.9971 96.0372 71.6771 95.2812 75.7091L94.0296 82.5887L92.1564 73.9199C91.6524 71.8367 91.3164 70.6691 88.3932 70.6691C85.47 70.6691 85.1256 71.8367 84.756 73.9199L82.8744 82.5887L81.48 75.7091C80.884 73.1057 80.5491 70.4494 80.4804 67.7795V65.0663C80.5021 64.7885 80.4672 64.5092 80.3778 64.2453C80.2883 63.9814 80.1462 63.7384 79.9601 63.531C79.7739 63.3237 79.5476 63.1563 79.2949 63.039C79.0421 62.9217 78.7681 62.857 78.4896 62.8487ZM51.7776 62.8487C51.5084 62.8699 51.2462 62.9442 51.0059 63.0674C50.7657 63.1906 50.5523 63.3602 50.3781 63.5665C50.2038 63.7727 50.0723 64.0115 49.991 64.2689C49.9097 64.5264 49.8802 64.7974 49.9044 65.0663V84.2771C49.8813 84.5385 49.9123 84.8018 49.9956 85.0506C50.0789 85.2994 50.2126 85.5283 50.3884 85.7231C50.5643 85.9178 50.7784 86.0742 51.0174 86.1824C51.2565 86.2906 51.5152 86.3483 51.7776 86.3519C52.0476 86.3584 52.3161 86.3085 52.5657 86.2053C52.8153 86.1021 53.0406 85.9479 53.2272 85.7526C53.4139 85.5573 53.5576 85.3251 53.6494 85.0711C53.7411 84.817 53.7788 84.5466 53.76 84.2771V76.6163H65.6964V84.2771C65.676 84.5491 65.7134 84.8223 65.8062 85.0787C65.8989 85.3352 66.0449 85.5691 66.2346 85.7651C66.4242 85.9611 66.6532 86.1147 66.9064 86.2158C67.1597 86.317 67.4315 86.3634 67.704 86.3519C67.9698 86.3588 68.234 86.3082 68.4784 86.2036C68.7229 86.099 68.9419 85.9429 69.1206 85.746C69.2992 85.549 69.4332 85.3158 69.5135 85.0623C69.5937 84.8088 69.6183 84.541 69.5856 84.2771V65.0663C69.6086 64.797 69.5781 64.5258 69.4958 64.2683C69.4135 64.0108 69.2811 63.7721 69.1063 63.566C68.9314 63.3599 68.7174 63.1904 68.4768 63.0673C68.2361 62.9442 67.9735 62.8699 67.704 62.8487C67.1454 62.8813 66.622 63.132 66.2465 63.5468C65.871 63.9616 65.6734 64.5073 65.6964 65.0663V72.6263H53.76V65.0663C53.7811 64.5119 53.5862 63.9709 53.2165 63.5573C52.8467 63.1437 52.3309 62.8897 51.7776 62.8487ZM34.8516 62.8487C31.4916 62.8487 28.9716 63.2435 27.5856 64.5287C26.4516 65.5703 25.83 67.1327 25.83 69.3335V79.8587C25.83 85.3187 28.9548 86.3519 34.7256 86.3519C38.6148 86.3519 41.37 85.8311 42.8736 83.7563C43.1307 83.3748 43.2628 82.9227 43.2516 82.4627C43.2706 82.1918 43.2324 81.9199 43.1397 81.6647C43.0469 81.4094 42.9017 81.1765 42.7132 80.9809C42.5248 80.7853 42.2974 80.6315 42.0457 80.5294C41.7941 80.4272 41.5238 80.379 41.2524 80.3879C40.7484 80.3879 40.2444 80.9003 39.8748 81.1607C38.3796 82.3703 37.8 82.4627 35.9016 82.4627H34.7256C30.8448 82.4627 29.6856 82.0679 29.6856 78.6911V70.5095C29.6856 67.1495 30.8196 66.7463 34.7256 66.7463H36.4644C37.0946 66.6774 37.7322 66.7587 38.325 66.9835C38.9177 67.2084 39.4488 67.5704 39.8748 68.0399C40.2147 68.4712 40.7084 68.7542 41.2524 68.8295C41.5213 68.8442 41.7904 68.8049 42.0439 68.7138C42.2973 68.6228 42.53 68.4819 42.7281 68.2995C42.9262 68.117 43.0857 67.8967 43.1973 67.6516C43.3088 67.4065 43.3701 67.1415 43.3776 66.8723C43.3432 66.3592 43.1689 65.8653 42.8736 65.4443C41.37 63.5039 38.8584 62.8487 34.8516 62.8487ZM10.0296 62.8487C3.6372 62.8487 0.7896 64.9319 0.7896 69.4763C0.7896 75.3563 4.3008 76.4903 10.8192 76.4903C12.4572 76.4903 15.2124 76.6163 15.2124 79.2203C15.2124 82.1939 13.5828 82.4627 9.8196 82.4627C6.804 82.4627 5.8044 82.1939 4.3008 80.3879C4.13529 80.1206 3.90908 79.8961 3.64053 79.7327C3.37197 79.5692 3.06865 79.4714 2.7552 79.4471C2.46931 79.4562 2.18629 79.5071 1.9152 79.5983C0.168 80.2535 0.6636 82.1939 1.1676 82.8491C3.6876 86.0915 6.5604 86.3519 9.8196 86.3519C16.4724 86.3519 19.0596 84.1511 19.0596 79.2203C19.0596 74.9279 16.9344 72.5003 10.4076 72.5003C7.2828 72.5003 4.5276 71.9795 4.5276 69.5183C4.5276 66.9143 6.5352 66.7883 10.1724 66.7883C12.9276 66.7883 13.8096 67.0487 15.2124 68.7371C15.5948 69.1327 16.1157 69.3646 16.6656 69.3839C17.1469 69.374 17.6087 69.1923 17.9676 68.8715C18.357 68.5042 18.588 67.9996 18.6115 67.4649C18.635 66.9301 18.4492 66.4072 18.0936 66.0071C16.17 63.5039 14.0364 62.8487 10.0296 62.8487ZM151.99 63.1091C151.723 63.1021 151.458 63.1529 151.213 63.2579C150.968 63.363 150.748 63.5199 150.569 63.7178C150.391 63.9157 150.257 64.15 150.177 64.4045C150.098 64.659 150.074 64.9278 150.108 65.1923C150.108 66.2339 150.856 67.1411 152.368 67.1411H162.271L151.704 80.1275C150.57 81.5555 149.948 82.1939 149.948 83.7563C149.964 84.3795 150.222 84.9722 150.667 85.4083C151.113 85.8444 151.711 86.0895 152.334 86.0915H165.371C165.642 86.1167 165.915 86.0851 166.174 85.9986C166.432 85.9121 166.669 85.7727 166.87 85.5893C167.072 85.4059 167.232 85.1825 167.342 84.9334C167.452 84.6843 167.509 84.415 167.509 84.1427C167.509 83.8704 167.452 83.6011 167.342 83.352C167.232 83.103 167.072 82.8796 166.87 82.6962C166.669 82.5127 166.432 82.3733 166.174 82.2868C165.915 82.2004 165.642 82.1687 165.371 82.1939H155.089L165.614 69.0815C166.505 67.7795 167.126 67.1411 167.126 65.4443C167.111 64.8211 166.853 64.2284 166.408 63.7923C165.962 63.3562 165.364 63.1111 164.741 63.1091H151.99ZM133.812 63.1091C133.528 63.0768 133.241 63.108 132.971 63.2006C132.701 63.2931 132.455 63.4446 132.25 63.644C132.046 63.8435 131.889 64.0859 131.79 64.3537C131.691 64.6215 131.653 64.908 131.678 65.1923C131.677 65.4646 131.733 65.734 131.842 65.9834C131.952 66.2327 132.112 66.4564 132.313 66.64C132.514 66.8236 132.751 66.9631 133.009 67.0494C133.268 67.1357 133.541 67.1669 133.812 67.1411H136.063V82.1939H133.812C133.541 82.1687 133.267 82.2004 133.009 82.2868C132.751 82.3733 132.514 82.5127 132.312 82.6962C132.111 82.8796 131.95 83.103 131.84 83.352C131.73 83.6011 131.674 83.8704 131.674 84.1427C131.674 84.415 131.73 84.6843 131.84 84.9334C131.95 85.1825 132.111 85.4059 132.312 85.5893C132.514 85.7727 132.751 85.9121 133.009 85.9986C133.267 86.0851 133.541 86.1167 133.812 86.0915H142.078C142.349 86.1167 142.622 86.0851 142.88 85.9986C143.139 85.9121 143.376 85.7727 143.577 85.5893C143.778 85.4059 143.939 85.1825 144.049 84.9334C144.159 84.6843 144.216 84.415 144.216 84.1427C144.216 83.8704 144.159 83.6011 144.049 83.352C143.939 83.103 143.778 82.8796 143.577 82.6962C143.376 82.5127 143.139 82.3733 142.88 82.2868C142.622 82.2004 142.349 82.1687 142.078 82.1939H139.826V67.1411H142.078C142.349 67.1682 142.624 67.1379 142.883 67.0521C143.142 66.9664 143.38 66.8271 143.582 66.6434C143.784 66.4597 143.945 66.2355 144.055 65.9856C144.165 65.7356 144.221 65.4653 144.22 65.1923C144.245 64.9072 144.207 64.6199 144.108 64.3514C144.008 64.0829 143.85 63.84 143.645 63.6404C143.44 63.4408 143.192 63.2895 142.921 63.1976C142.65 63.1057 142.362 63.0755 142.078 63.1091H133.812ZM115.634 62.8487C109.486 62.8487 107.108 64.7975 107.108 69.8627V79.9931C107.108 83.4959 109.108 86.0915 114.374 86.0915H121.271C121.535 86.1162 121.801 86.0835 122.051 85.9957C122.302 85.9078 122.53 85.7669 122.72 85.5826C122.911 85.3984 123.06 85.175 123.156 84.9279C123.252 84.6808 123.294 84.4158 123.278 84.1511C123.284 83.8881 123.236 83.6267 123.137 83.3832C123.037 83.1396 122.889 82.9191 122.701 82.7355C122.512 82.5519 122.288 82.409 122.042 82.3158C121.796 82.2227 121.534 82.1812 121.271 82.1939H116.004C111.493 82.1939 110.872 81.8159 110.872 78.5651V76.6163H122.774C123.045 76.6421 123.319 76.6109 123.577 76.5246C123.835 76.4383 124.072 76.2988 124.273 76.1152C124.475 75.9316 124.635 75.7079 124.744 75.4586C124.853 75.2092 124.909 74.9398 124.908 74.6675V69.4763C124.874 64.7975 122.489 62.8487 115.601 62.8487H115.634ZM115.634 66.6119C120.397 66.6119 121.019 67.1411 121.019 70.9043V72.7271H110.88V70.9043C110.88 67.1411 111.72 66.6119 115.601 66.6119H115.634ZM152.208 31.6931C151.927 31.6685 151.643 31.7048 151.377 31.7995C151.111 31.8942 150.869 32.0452 150.666 32.2421C150.464 32.4389 150.306 32.6772 150.204 32.9405C150.102 33.2038 150.058 33.486 150.074 33.7679C150.073 34.0398 150.129 34.309 150.238 34.558C150.348 34.8069 150.508 35.0301 150.709 35.2131C150.91 35.396 151.148 35.5347 151.406 35.62C151.664 35.7053 151.937 35.7354 152.208 35.7083H157.08V52.8527C157.057 53.1212 157.088 53.3915 157.17 53.648C157.253 53.9045 157.385 54.142 157.56 54.3468C157.735 54.5516 157.949 54.7195 158.19 54.8408C158.431 54.9622 158.693 55.0345 158.962 55.0535C159.243 55.059 159.523 55.0041 159.781 54.8927C160.04 54.7812 160.272 54.6157 160.461 54.4072C160.65 54.1987 160.793 53.9522 160.879 53.684C160.965 53.4159 160.993 53.1325 160.961 52.8527V35.7083H165.858C166.129 35.7367 166.403 35.7075 166.663 35.6228C166.922 35.538 167.16 35.3996 167.362 35.2165C167.564 35.0334 167.726 34.8098 167.836 34.5602C167.945 34.3106 168.001 34.0406 168 33.7679C168.027 33.4843 167.99 33.1982 167.892 32.9307C167.794 32.6632 167.638 32.421 167.434 32.222C167.23 32.0229 166.984 31.8721 166.714 31.7806C166.445 31.6891 166.158 31.6592 165.875 31.6931H152.208ZM132.77 31.6931C132.472 31.689 132.176 31.7483 131.902 31.8671C131.628 31.9859 131.383 32.1615 131.182 32.3822C130.981 32.603 130.829 32.8638 130.737 33.1476C130.644 33.4314 130.613 33.7316 130.645 34.0283V53.1131C130.654 53.6352 130.869 54.1325 131.244 54.4962C131.619 54.8599 132.122 55.0603 132.644 55.0535C132.914 55.0356 133.176 54.964 133.417 54.8431C133.659 54.7221 133.873 54.5542 134.048 54.3491C134.224 54.1441 134.356 53.9061 134.438 53.6491C134.52 53.3922 134.55 53.1214 134.526 52.8527V45.1919H143.766C144.028 45.2047 144.289 45.1634 144.534 45.0706C144.779 44.9779 145.002 44.8356 145.19 44.6528C145.377 44.4699 145.525 44.2504 145.624 44.0079C145.723 43.7653 145.771 43.505 145.765 43.2431C145.786 42.9748 145.751 42.7051 145.662 42.4512C145.573 42.1974 145.431 41.9649 145.247 41.7688C145.063 41.5727 144.84 41.4172 144.592 41.3123C144.344 41.2075 144.077 41.1556 143.808 41.1599H134.568V35.6999H143.976C144.253 35.7057 144.527 35.6553 144.784 35.5516C145.04 35.4479 145.273 35.2931 145.468 35.0967C145.663 34.9003 145.816 34.6663 145.917 34.409C146.019 34.1517 146.067 33.8764 146.059 33.5999C146.05 33.3321 145.987 33.069 145.874 32.8258C145.762 32.5827 145.602 32.3644 145.404 32.1837C145.206 32.003 144.974 31.8636 144.722 31.7736C144.469 31.6836 144.202 31.6448 143.934 31.6595L132.77 31.6931ZM107.822 31.4327C105.193 31.4327 104.185 32.6003 104.185 35.4563V52.8527C104.185 54.4151 105.025 55.0535 106.193 55.0535C107.36 55.0535 108.074 54.1547 108.074 52.7183V35.5823L115.97 51.8111C116.852 53.7599 117.6 55.0535 119.986 55.0535C122.237 55.0535 123.346 54.2807 123.346 51.1643V33.5243C123.365 33.2538 123.327 32.9822 123.234 32.7274C123.141 32.4726 122.995 32.2401 122.807 32.0452C122.618 31.8503 122.391 31.6973 122.139 31.5961C121.888 31.4949 121.617 31.4478 121.346 31.4579C121.085 31.4616 120.827 31.5191 120.588 31.6268C120.35 31.7345 120.136 31.8901 119.961 32.0839C119.785 32.2777 119.651 32.5056 119.567 32.7534C119.483 33.0012 119.451 33.2636 119.473 33.5243V50.3999L111.913 34.6919C110.88 32.2055 110.586 31.4327 107.822 31.4327ZM79.1112 31.4327C78.8354 31.4379 78.5635 31.4987 78.3118 31.6115C78.06 31.7243 77.8337 31.8867 77.6462 32.0891C77.4587 32.2915 77.3141 32.5296 77.2208 32.7892C77.1276 33.0488 77.0877 33.3245 77.1036 33.5999V46.7543C77.1036 52.0799 79.9848 55.0535 86.8896 55.0535C91.7784 55.0535 96.4152 53.8859 96.4152 46.7543V33.7679C96.4152 32.3315 95.6592 31.4327 94.4076 31.4327C93.156 31.4327 92.526 32.3315 92.526 33.7679V46.3679C92.526 50.7863 88.8888 51.0467 86.8896 51.0467C84.756 51.0467 81.1104 50.9207 81.1104 46.3679V33.7679C81.1104 32.2055 80.2368 31.4327 79.1112 31.4327ZM53.1552 31.4327C52.8866 31.4477 52.6236 31.5158 52.3815 31.6331C52.1394 31.7505 51.923 31.9147 51.7449 32.1163C51.5668 32.3178 51.4304 32.5528 51.3437 32.8075C51.257 33.0622 51.2218 33.3315 51.24 33.5999V52.8527C51.2088 53.1267 51.2358 53.4041 51.3192 53.6669C51.4027 53.9297 51.5408 54.1719 51.7244 54.3776C51.908 54.5834 52.1329 54.748 52.3846 54.8607C52.6362 54.9734 52.9089 55.0316 53.1846 55.0316C53.4603 55.0316 53.7329 54.9734 53.9846 54.8607C54.2362 54.748 54.4612 54.5834 54.6448 54.3776C54.8284 54.1719 54.9665 53.9297 55.05 53.6669C55.1334 53.4041 55.1604 53.1267 55.1292 52.8527V47.3927L61.152 41.9495L68.0484 54.1547C68.2132 54.4476 68.4578 54.6876 68.7537 54.8467C69.0497 55.0059 69.3848 55.0776 69.72 55.0535C70.2141 55.0114 70.6763 54.7916 71.0207 54.4348C71.3652 54.078 71.5686 53.6084 71.5932 53.1131C71.6046 52.6921 71.4711 52.28 71.2152 51.9455L64.2012 39.3455L68.964 35.0531C69.1985 34.8399 69.3867 34.5808 69.5167 34.2917C69.6468 34.0027 69.716 33.69 69.72 33.3731C69.716 32.8698 69.5183 32.3873 69.1679 32.026C68.8175 31.6646 68.3414 31.4521 67.8384 31.4327C67.389 31.4223 66.9478 31.5546 66.5784 31.8107L55.1628 42.0671V33.5999C55.1799 33.3243 55.1408 33.048 55.048 32.7879C54.9552 32.5277 54.8106 32.2892 54.6229 32.0865C54.4352 31.8839 54.2084 31.7215 53.9561 31.6091C53.7038 31.4968 53.4314 31.4367 53.1552 31.4327ZM26.4516 31.4327C26.1754 31.4367 25.903 31.4968 25.6507 31.6091C25.3984 31.7215 25.1716 31.8839 24.9839 32.0865C24.7962 32.2892 24.6516 32.5277 24.5588 32.7879C24.466 33.048 24.4269 33.3243 24.444 33.5999V46.7543C24.444 52.0799 27.3336 55.0535 34.0956 55.0535C39.1356 55.0535 43.7556 53.8859 43.7556 46.7543V33.7679C43.7556 32.3315 42.9996 31.4327 41.748 31.4327C40.4964 31.4327 39.8748 32.3315 39.8748 33.7679V46.3679C39.8748 50.7863 36.1116 51.0467 34.0956 51.0467C32.0796 51.0467 28.4592 50.9207 28.4592 46.3679V33.7679C28.4592 32.2055 27.5856 31.4327 26.4516 31.4327ZM2.2512 31.6931C1.98569 31.6861 1.72179 31.7366 1.47767 31.8413C1.23354 31.9459 1.01497 32.1022 0.836981 32.2993C0.65899 32.4965 0.525801 32.7298 0.446571 32.9833C0.367341 33.2368 0.343948 33.5045 0.378 33.7679C0.365189 34.0438 0.413554 34.3192 0.519631 34.5742C0.625707 34.8292 0.786869 35.0576 0.991574 35.2431C1.19628 35.4285 1.43946 35.5664 1.7037 35.6468C1.96794 35.7272 2.24669 35.7482 2.52 35.7083H12.4152L1.9992 48.7199C0.84 50.1227 0.252 50.9123 0.252 52.3319C0.246437 52.6507 0.303734 52.9675 0.420619 53.2642C0.537504 53.5608 0.711688 53.8316 0.933221 54.0609C1.15475 54.2902 1.4193 54.4737 1.71174 54.6007C2.00418 54.7278 2.31879 54.796 2.6376 54.8015H15.666C15.9389 54.8103 16.2106 54.7619 16.4636 54.6594C16.7167 54.5569 16.9455 54.4026 17.1354 54.2064C17.3252 54.0102 17.472 53.7765 17.5661 53.5202C17.6602 53.2639 17.6997 52.9908 17.682 52.7183C17.6978 52.4528 17.6559 52.187 17.5591 51.9393C17.4624 51.6916 17.313 51.4678 17.1214 51.2833C16.9297 51.0989 16.7004 50.9582 16.4491 50.8709C16.1979 50.7837 15.9307 50.7519 15.666 50.7779H5.2668L15.96 37.6571C16.716 36.3635 17.472 35.7083 17.472 34.0283C17.4567 33.4051 17.1989 32.8124 16.7534 32.3763C16.3079 31.9402 15.7098 31.6951 15.0864 31.6931H2.2512ZM114.467 -8.45851e-05C111.712 -8.45851e-05 109.326 0.520716 107.57 1.82272C105.941 3.11632 104.933 5.18271 104.933 8.31592V15.4559C104.933 18.1775 105.445 20.1347 106.823 21.4283C108.326 22.9823 110.838 23.6375 114.467 23.6375C119.86 23.6375 124.001 22.0751 124.001 15.4559V12.2135C124.01 11.9439 123.965 11.6752 123.868 11.4233C123.771 11.1715 123.625 10.9416 123.438 10.7474C123.25 10.5531 123.026 10.3984 122.778 10.2924C122.53 10.1864 122.263 10.1313 121.993 10.1303H116.474C116.199 10.1102 115.923 10.1509 115.665 10.2495C115.407 10.3482 115.174 10.5024 114.982 10.7012C114.791 10.9 114.645 11.1386 114.556 11.3999C114.467 11.6613 114.436 11.9391 114.467 12.2135C114.462 12.4754 114.511 12.7356 114.611 12.9777C114.711 13.2199 114.86 13.4388 115.048 13.6209C115.236 13.8029 115.46 13.9442 115.706 14.0359C115.951 14.1277 116.213 14.1678 116.474 14.1539H120.238V15.5819C120.238 18.5723 118.726 19.7399 114.358 19.7399C109.99 19.7399 108.713 18.1775 108.713 15.3215V8.44192C108.713 4.93072 110.099 4.02352 114.358 4.02352C114.996 4.02352 115.517 4.02352 115.979 4.02352C117.886 4.02352 118.499 4.30072 119.507 5.23312C119.876 5.50192 120.347 6.02272 121.002 6.02272C121.265 6.01788 121.524 5.95913 121.764 5.8501C122.003 5.74106 122.218 5.58406 122.394 5.3888C122.571 5.19355 122.705 4.96418 122.789 4.7149C122.873 4.46562 122.905 4.20172 122.884 3.93952C122.876 3.52153 122.744 3.11525 122.506 2.77192C121.111 0.655115 118.6 0.134315 114.467 -8.45851e-05ZM81.2364 0.260315C80.956 0.238363 80.6742 0.276568 80.4098 0.372371C80.1454 0.468174 79.9045 0.619363 79.7033 0.815815C79.5021 1.01227 79.3452 1.24945 79.243 1.51147C79.1409 1.77349 79.096 2.05431 79.1112 2.33512V21.4283C79.1112 22.7303 79.8588 23.6375 80.9928 23.6375C81.2623 23.6185 81.5253 23.5459 81.7665 23.4241C82.0076 23.3022 82.2221 23.1335 82.3973 22.9278C82.5725 22.7221 82.7049 22.4836 82.7868 22.2261C82.8687 21.9686 82.8985 21.6974 82.8744 21.4283V15.3215H89.2668L93.408 22.7303C93.5686 23.0161 93.8049 23.252 94.0909 23.4121C94.377 23.5721 94.7016 23.6502 95.0292 23.6375C95.5344 23.6181 96.0127 23.4047 96.3647 23.0418C96.7166 22.6789 96.9152 22.1943 96.9192 21.6887C96.8951 21.2862 96.8101 20.8897 96.6672 20.5127L93.3072 14.5487C95.6844 13.6415 97.314 11.6843 97.314 8.18152C97.314 4.93072 96.5664 3.50272 95.5584 2.30152C93.9036 0.520716 91.4004 0.260315 88.6368 0.260315H81.2364ZM28.8372 -8.45851e-05C26.3172 -8.45851e-05 25.3176 1.16752 25.3176 4.19992V21.4283C25.3176 22.9823 26.208 23.6375 27.3336 23.6375C28.5852 23.6375 29.2068 22.7303 29.2068 21.4283V4.19992L37.1112 20.4287C37.9512 22.3775 38.7408 23.6795 41.1264 23.6795C43.3776 23.6795 44.4864 22.8983 44.4864 19.7819V2.14192C44.5138 1.86738 44.4826 1.59016 44.3949 1.32858C44.3072 1.067 44.1649 0.827028 43.9775 0.624541C43.7901 0.422053 43.5618 0.261665 43.3078 0.153986C43.0538 0.0463076 42.7798 -0.00620739 42.504 -8.45851e-05C42.2405 0.00352001 41.9807 0.0614454 41.7406 0.170069C41.5006 0.278692 41.2855 0.435676 41.1089 0.631204C40.9323 0.826731 40.798 1.0566 40.7142 1.30642C40.6305 1.55624 40.5993 1.82066 40.6224 2.08312V18.9587L33.0624 3.25072C31.9704 0.781115 31.7184 -8.45851e-05 28.8372 -8.45851e-05ZM158.474 -8.45851e-05C152.334 -8.45851e-05 149.822 1.94872 149.822 7.01392V17.1443C149.822 20.7815 151.956 23.3771 157.223 23.3771H163.993C164.262 23.3918 164.531 23.3528 164.784 23.2624C165.037 23.1719 165.27 23.0319 165.469 22.8505C165.668 22.669 165.828 22.4498 165.941 22.2056C166.054 21.9614 166.117 21.6972 166.127 21.4283C166.135 21.147 166.085 20.8671 165.981 20.6058C165.876 20.3446 165.719 20.1077 165.519 19.9099C165.319 19.7121 165.08 19.5576 164.817 19.4561C164.555 19.3546 164.274 19.3083 163.993 19.3199H158.852H157.601C154.241 19.3199 153.712 18.6983 153.712 15.6659V13.7591H165.614C165.879 13.7851 166.146 13.7534 166.398 13.6661C166.649 13.5789 166.878 13.4382 167.07 13.2537C167.261 13.0693 167.411 12.8455 167.508 12.5977C167.604 12.35 167.646 12.0842 167.63 11.8187V6.62752C167.63 1.94872 165.371 -8.45851e-05 158.474 -8.45851e-05ZM132.896 0.260315C132.615 0.237098 132.333 0.274361 132.067 0.369596C131.802 0.464831 131.56 0.615828 131.358 0.81242C131.156 1.00901 130.998 1.24664 130.895 1.50929C130.793 1.77195 130.747 2.05354 130.763 2.33512C130.762 2.60736 130.817 2.87683 130.927 3.12618C131.036 3.37553 131.196 3.59921 131.397 3.78281C131.598 3.96642 131.836 4.10587 132.094 4.19217C132.352 4.27848 132.625 4.30973 132.896 4.28392H135.156V19.3199H132.896C132.627 19.3052 132.358 19.3445 132.104 19.4355C131.85 19.5264 131.616 19.6672 131.418 19.8495C131.219 20.0318 131.059 20.252 130.946 20.4972C130.834 20.7424 130.771 21.0075 130.763 21.2771C130.759 21.5556 130.812 21.8319 130.919 22.0892C131.026 22.3464 131.184 22.5793 131.383 22.7734C131.583 22.9676 131.82 23.119 132.08 23.2185C132.34 23.318 132.618 23.3634 132.896 23.3519H141.17C141.46 23.3874 141.754 23.3596 142.031 23.2705C142.309 23.1814 142.564 23.0331 142.779 22.8358C142.994 22.6386 143.163 22.3971 143.276 22.128C143.388 21.8588 143.441 21.5686 143.43 21.2771C143.418 20.9976 143.348 20.7235 143.227 20.4717C143.105 20.2198 142.933 19.9954 142.721 19.8122C142.51 19.629 142.263 19.4909 141.997 19.4063C141.73 19.3216 141.449 19.2922 141.17 19.3199H139.045V4.28392H141.17C142.556 4.28392 143.43 3.50272 143.43 2.33512C143.445 2.05354 143.4 1.77195 143.298 1.50929C143.195 1.24664 143.037 1.00901 142.835 0.81242C142.633 0.615828 142.391 0.464831 142.126 0.369596C141.86 0.274361 141.577 0.237098 141.296 0.260315H132.896ZM60.9336 -8.45851e-05C54.7932 -8.45851e-05 52.4076 1.94872 52.4076 7.01392V17.1443C52.4076 20.7815 54.5412 23.3771 59.682 23.3771H66.57C66.8389 23.393 67.1082 23.3548 67.3621 23.2648C67.616 23.1748 67.8493 23.0348 68.0482 22.8531C68.2471 22.6715 68.4076 22.4518 68.5201 22.2071C68.6327 21.9624 68.6951 21.6976 68.7036 21.4283C68.7132 21.1467 68.6643 20.8662 68.5602 20.6044C68.456 20.3425 68.2987 20.1051 68.0983 19.9071C67.8979 19.709 67.6586 19.5546 67.3956 19.4536C67.1326 19.3525 66.8515 19.307 66.57 19.3199H61.32H60.0768C56.7168 19.3199 56.3052 18.6983 56.3052 15.6659V13.7591H68.0652C68.3351 13.7849 68.6074 13.7539 68.8646 13.668C69.1218 13.5822 69.3581 13.4433 69.5584 13.2605C69.7586 13.0777 69.9183 12.8549 70.0272 12.6066C70.136 12.3582 70.1916 12.0899 70.1904 11.8187V6.62752C70.2072 1.94872 67.83 -8.45851e-05 60.9336 -8.45851e-05ZM8.652 -8.45851e-05C2.3856 -8.45851e-05 0 1.94872 0 7.01392V17.1443C0 20.7815 2.1252 23.3771 7.2744 23.3771H14.1624C14.431 23.3918 14.6999 23.3528 14.9533 23.2624C15.2067 23.1719 15.4395 23.0319 15.6382 22.8505C15.8368 22.669 15.9973 22.4498 16.1103 22.2056C16.2232 21.9614 16.2864 21.6972 16.296 21.4283C16.3043 21.147 16.2546 20.8671 16.15 20.6058C16.0454 20.3446 15.8881 20.1077 15.6879 19.9099C15.4878 19.7121 15.249 19.5576 14.9866 19.4561C14.7241 19.3546 14.4436 19.3083 14.1624 19.3199H9.03H7.7784C4.4184 19.3199 3.8892 18.6983 3.8892 15.6659V13.7591H15.792C16.0539 13.7743 16.3161 13.735 16.5621 13.6437C16.808 13.5525 17.0324 13.4112 17.2211 13.2289C17.4097 13.0466 17.5585 12.8271 17.6581 12.5844C17.7577 12.3417 17.8058 12.081 17.7996 11.8187V6.62752C17.7996 1.94872 15.54 -8.45851e-05 8.652 -8.45851e-05ZM88.1412 4.28392C91.1484 4.28392 93.408 4.41832 93.408 7.79512C93.408 11.1719 91.1484 11.4239 88.1412 11.4239H82.8744V4.28392H88.1412ZM158.474 3.76312C163.237 3.76312 163.867 4.28392 163.867 8.18152V9.86152H153.72V8.18152C153.72 4.41832 154.459 3.76312 158.474 3.76312ZM60.9336 3.76312C65.8224 3.76312 66.444 4.28392 66.444 8.18152V9.86152H56.28V8.18152C56.28 4.41832 57.0444 3.76312 60.9336 3.76312ZM8.652 3.76312C13.4148 3.76312 14.0364 4.28392 14.0364 8.18152V9.86152H3.8892V8.18152C3.8892 4.41832 4.6368 3.76312 8.652 3.76312Z" fill="#324656"/>
</g>
<defs>
<clipPath id="clip0">
<rect width="168" height="86.352" fill="white"/>
</clipPath>
</defs>
</svg>
